<?xml version="1.0" standalone="no"?><!DOCTYPE svg PUBLIC "-//W3C//DTD SVG 1.1//EN" "http://www.w3.org/Graphics/SVG/1.1/DTD/svg11.dtd"><svg class="icon" height="512" viewBox="0 0 1024 1024" version="1.1" xmlns="http://www.w3.org/2000/svg"><path d="M527.2 511.8m-437 0a437 437 0 1 0 874 0 437 437 0 1 0-874 0Z" fill="#62A92A" /><path d="M523 680.5c-13.3 0-24.2 4.3-33.3 13.2-9.1 8.8-13.5 19.5-13.5 32.5 0 14.7 4.5 25.8 13.6 33.7 9.5 8.3 20.3 12.3 33.1 12.3 12.2 0 22.8-4 32.2-12.3 9.1-8.1 13.5-19.1 13.5-33.6 0-13-4.3-23.7-13.1-32.5-8.9-9-19.5-13.3-32.5-13.3zM597.6 527.2c28.1-25.2 48.9-44.2 60.1-55.2 10.6-10.4 20-23 27.7-37.3 7.5-14 11.4-30.6 11.4-49.3 0-24-6.8-46.4-20.2-66.8-13.5-20.5-32.9-36.9-57.8-48.9-25.1-12.1-54.5-18.2-87.4-18.2-35.4 0-66.7 7.3-93 21.7-26.4 14.4-46.6 32.8-60.3 54.6-13.6 21.7-20.5 43.4-20.5 64.3 0 9 3.8 17.3 11.6 25.3s17.1 11.9 28.4 11.9c19.1 0 31.8-11.3 38.8-34.6 8.9-26.8 19.9-47.1 32.8-60.8 13.5-14.4 34.5-21.8 62.3-21.8 23.8 0 43.6 7.1 58.9 21.2 15.4 14.3 23.2 32 23.2 52.8 0 10.7-2.6 20.9-7.7 30.2-4.9 8.8-11 16.9-18.1 24-7.1 7.1-18.2 17.2-33.1 30.2-16.8 14.7-30.4 27.7-40.5 38.5-9.5 10.3-17.2 22.4-23 36.1-5.7 13.5-8.6 29.9-8.6 48.7 0 13.7 3.5 24 10.4 30.6 7.1 6.8 15.6 10.1 26.1 10.1 19.9 0 31.4-10 35.1-30.6 2.8-12.4 4.8-20.5 6-25.2 1.5-5.2 3.5-10.3 6.1-15.3 2.6-5 6.5-10.6 11.7-16.5 4.7-5.5 11.4-12.2 19.6-19.7z" fill="#FFFFFF" /></svg>